<svg width="37" height="38" viewBox="0 0 37 38" fill="none" xmlns="http://www.w3.org/2000/svg">
<path d="M18.5025 0C12.5975 0 7.77039 4.43762 7.77039 9.86623C7.77039 15.2948 12.5975 19.7325 18.5025 19.7325C24.4076 19.7325 29.2347 15.2948 29.2347 9.86623C29.2347 4.43762 24.4076 0 18.5025 0Z" fill="#3E3E3E"/>
<path d="M36.9209 27.6168C36.6397 26.9705 36.2648 26.3674 35.843 25.8073C33.6872 22.8775 30.3599 20.9388 26.6106 20.4648C26.142 20.4218 25.6265 20.5079 25.2515 20.7664C23.2832 22.102 20.94 22.7913 18.5029 22.7913C16.0658 22.7913 13.7226 22.102 11.7543 20.7664C11.3793 20.5079 10.8638 20.3786 10.3952 20.4648C6.64595 20.9388 3.27168 22.8775 1.16276 25.8073C0.740972 26.3674 0.366013 27.0136 0.0848838 27.6168C-0.0556809 27.8753 -0.00885598 28.1769 0.131709 28.4354C0.506668 29.0386 0.975276 29.6418 1.39706 30.1588C2.05315 30.9774 2.75615 31.7098 3.55289 32.3991C4.20898 33.0023 4.95881 33.5624 5.70873 34.1225C9.41104 36.6645 13.8633 38 18.4561 38C23.0489 38 27.5011 36.6644 31.2034 34.1225C31.9533 33.6055 32.7031 33.0023 33.3593 32.3991C34.1091 31.7098 34.8589 30.9773 35.5151 30.1588C35.9837 29.5987 36.4056 29.0386 36.7804 28.4354C37.0147 28.1769 37.0615 27.8752 36.9209 27.6168Z" fill="#3E3E3E"/>
</svg>
