<svg width="37" height="38" viewBox="0 0 37 38" fill="none" xmlns="http://www.w3.org/2000/svg">
<path d="M10.9121 30.1328C10.9121 34.4301 14.3158 38 18.5 38C22.6842 38 26.0879 34.4301 26.0879 30.1328C26.0879 26.7261 23.9199 23.7426 20.7764 22.7183L18.5 19.2226L16.2236 22.7183C13.0801 23.7426 10.9121 26.7261 10.9121 30.1328ZM17.416 26.793H19.584V29.6652L21.4267 31.5801L19.9092 33.1386L17.416 30.6005V26.793Z" fill="#3E3E3E"/>
<path d="M5.38379 15.2817L7.66016 18.7774L9.93652 15.2817C13.0801 14.2574 15.248 11.2739 15.248 7.86719C15.248 3.56992 11.8443 0 7.66016 0C3.47598 0 0 3.56992 0 7.86719C0 11.2739 2.24023 14.2574 5.38379 15.2817ZM6.57617 4.52734H8.74414V6.75391H10.9121V8.98047H6.57617V4.52734Z" fill="#3E3E3E"/>
<path d="M29.3398 0C25.1557 0 21.752 3.56992 21.752 7.86719C21.752 11.2739 23.9199 14.2574 27.0635 15.2817L29.3398 18.7774L31.6162 15.2817C34.7598 14.2574 37 11.2739 37 7.86719C37 3.56992 33.524 0 29.3398 0V0ZM30.4238 8.33484L27.9306 10.873L26.4131 9.31453L28.2559 7.39953V4.52734H30.4238V8.33484Z" fill="#3E3E3E"/>
<path d="M0 17.8867H5.49219V20.1133H0V17.8867Z" fill="#3E3E3E"/>
<path d="M9.82812 17.8867H16.332V20.1133H9.82812V17.8867Z" fill="#3E3E3E"/>
<path d="M20.668 17.8867H27.1719V20.1133H20.668V17.8867Z" fill="#3E3E3E"/>
<path d="M31.5078 17.8867H37V20.1133H31.5078V17.8867Z" fill="#3E3E3E"/>
</svg>
